<svg xmlns="http://www.w3.org/2000/svg" viewBox="0 0 24 24" fill="currentColor"><path d="M22 7h-7V5h7v2zm1.726 10c-.442 1.297-2.029 3-5.101 3-3.074 0-5.564-1.857-5.564-5.75 0-3.896 2.547-5.75 5.405-5.75 3.043 0 4.76 1.94 4.76 5.25v.5H15.16c.13 2.07 1.6 2.93 3.37 2.93 1.21 0 2.12-.55 2.48-1.68h2.716zM16.376 13.5h4.35c-.13-1.67-.95-2.5-2.17-2.5-1.3 0-2.02.85-2.18 2.5zM0 21h5.6c3.05 0 5.4-1.63 5.4-5.1 0-2.6-1.5-4.25-3.85-4.7v-.1C9 10.55 10.1 9.15 10.1 7.15 10.1 4.2 8 2.5 4.85 2.5H0V21zm4.15-13.8h1.35c1.35 0 2.1.7 2.1 1.85 0 1.2-.8 1.9-2.2 1.9H4.15V7.2zm0 9.3h1.55c1.65 0 2.55.8 2.55 2.2 0 1.45-.95 2.3-2.6 2.3H4.15v-4.5z"/></svg>
