<svg xmlns="http://www.w3.org/2000/svg" viewBox="0 0 24 24" fill="currentColor"><path d="M12 24C5.385 24 0 18.615 0 12S5.385 0 12 0s12 5.385 12 12-5.385 12-12 12zm10.12-10.358c-.35-.11-3.17-.953-6.384-.438 1.34 3.684 1.887 6.684 1.992 7.308 2.4-1.615 4.104-4.09 4.392-6.87zm-5.95 7.806c-.153-.9-.75-4.032-2.19-7.77l-.066.02c-5.79 2.015-7.86 6.025-8.01 6.34a9.88 9.88 0 008.266 1.41zM4.868 17.45c.188-.313 2.46-4.05 8.48-6.42.14-.05.28-.09.42-.13-.27-.61-.56-1.22-.89-1.81-5.66 1.69-11.12 1.62-11.64 1.6a9.93 9.93 0 003.63 6.76zM2.15 9.87c.51.01 5.21.05 10.57-1.4-1.9-3.37-3.95-6.2-4.25-6.62A9.9 9.9 0 002.15 9.87zm6.92-7.64c.32.43 2.4 3.25 4.27 6.72 4.07-1.53 5.8-3.85 6.02-4.18A9.87 9.87 0 009.07 2.23zm10.76 3.66c-.25.34-2.24 2.88-6.48 4.66.27.55.52 1.12.75 1.7l.15.45c3.54-.42 7.08.26 7.43.33a9.9 9.9 0 00-1.85-6.14z"/></svg>
